<svg width="510" height="110" viewBox="0 0 510 110" fill="none" xmlns="http://www.w3.org/2000/svg">
<rect width="510" height="110" fill="transparent"/>
<path d="M143.029 60.2H149.909C150.069 61.2133 150.509 62.1067 151.229 62.88C151.976 63.6267 152.963 64.2133 154.189 64.64C155.443 65.04 156.883 65.24 158.509 65.24C160.883 65.24 162.749 64.9067 164.109 64.24C165.496 63.5467 166.189 62.5867 166.189 61.36C166.189 60.4 165.789 59.6667 164.989 59.16C164.216 58.6267 162.763 58.24 160.629 58L154.589 57.32C150.696 56.8933 147.869 55.9867 146.109 54.6C144.376 53.1867 143.509 51.2267 143.509 48.72C143.509 46.7467 144.083 45.0667 145.229 43.68C146.403 42.2933 148.043 41.24 150.149 40.52C152.256 39.7733 154.736 39.4 157.589 39.4C160.363 39.4 162.829 39.8133 164.989 40.64C167.149 41.44 168.869 42.5733 170.149 44.04C171.429 45.48 172.123 47.1733 172.229 49.12H165.349C165.216 48.24 164.816 47.48 164.149 46.84C163.509 46.1733 162.616 45.6667 161.469 45.32C160.323 44.9467 158.976 44.76 157.429 44.76C155.269 44.76 153.549 45.08 152.269 45.72C150.989 46.36 150.349 47.2667 150.349 48.44C150.349 49.3467 150.723 50.0533 151.469 50.56C152.243 51.04 153.589 51.4 155.509 51.64L161.789 52.4C164.563 52.6933 166.763 53.1733 168.389 53.84C170.043 54.48 171.216 55.3467 171.909 56.44C172.629 57.5333 172.989 58.92 172.989 60.6C172.989 62.6 172.376 64.36 171.149 65.88C169.949 67.3733 168.256 68.5333 166.069 69.36C163.883 70.1867 161.323 70.6 158.389 70.6C155.403 70.6 152.776 70.1733 150.509 69.32C148.243 68.44 146.456 67.2267 145.149 65.68C143.843 64.1067 143.136 62.28 143.029 60.2ZM176.359 40H183.159V70H176.359V40ZM200.359 40H207.159V70H200.359V40ZM180.079 51.84H203.359V57.8H180.079V51.84ZM210.512 60.2H217.392C217.552 61.2133 217.992 62.1067 218.712 62.88C219.459 63.6267 220.445 64.2133 221.672 64.64C222.925 65.04 224.365 65.24 225.992 65.24C228.365 65.24 230.232 64.9067 231.592 64.24C232.979 63.5467 233.672 62.5867 233.672 61.36C233.672 60.4 233.272 59.6667 232.472 59.16C231.699 58.6267 230.245 58.24 228.112 58L222.072 57.32C218.179 56.8933 215.352 55.9867 213.592 54.6C211.859 53.1867 210.992 51.2267 210.992 48.72C210.992 46.7467 211.565 45.0667 212.712 43.68C213.885 42.2933 215.525 41.24 217.632 40.52C219.739 39.7733 222.219 39.4 225.072 39.4C227.845 39.4 230.312 39.8133 232.472 40.64C234.632 41.44 236.352 42.5733 237.632 44.04C238.912 45.48 239.605 47.1733 239.712 49.12H232.832C232.699 48.24 232.299 47.48 231.632 46.84C230.992 46.1733 230.099 45.6667 228.952 45.32C227.805 44.9467 226.459 44.76 224.912 44.76C222.752 44.76 221.032 45.08 219.752 45.72C218.472 46.36 217.832 47.2667 217.832 48.44C217.832 49.3467 218.205 50.0533 218.952 50.56C219.725 51.04 221.072 51.4 222.992 51.64L229.272 52.4C232.045 52.6933 234.245 53.1733 235.872 53.84C237.525 54.48 238.699 55.3467 239.392 56.44C240.112 57.5333 240.472 58.92 240.472 60.6C240.472 62.6 239.859 64.36 238.632 65.88C237.432 67.3733 235.739 68.5333 233.552 69.36C231.365 70.1867 228.805 70.6 225.872 70.6C222.885 70.6 220.259 70.1733 217.992 69.32C215.725 68.44 213.939 67.2267 212.632 65.68C211.325 64.1067 210.619 62.28 210.512 60.2ZM252.269 43.04H259.029V70H252.269V43.04ZM240.309 40H270.949V46H240.309V40ZM273.54 70V40H280.3V64.48L278.38 63.12L296.94 40H304.18L279.66 70H273.54ZM287.86 55.32L292.74 50.96L304.62 70H296.86L287.86 55.32ZM323.084 67H320.084L332.324 40H339.524L325.284 70H317.644L303.444 40H310.724L323.084 67ZM352.877 64.24C350.984 64.24 349.224 63.9333 347.597 63.32C345.97 62.7067 344.557 61.84 343.357 60.72C342.184 59.5733 341.264 58.2533 340.597 56.76C339.93 55.24 339.597 53.5867 339.597 51.8C339.597 50.0133 339.93 48.3733 340.597 46.88C341.264 45.36 342.184 44.04 343.357 42.92C344.557 41.8 345.97 40.9333 347.597 40.32C349.224 39.7067 350.984 39.4 352.877 39.4C354.797 39.4 356.57 39.7067 358.197 40.32C359.824 40.9333 361.224 41.8 362.397 42.92C363.597 44.04 364.53 45.36 365.197 46.88C365.864 48.3733 366.197 50.0133 366.197 51.8C366.197 53.5867 365.864 55.24 365.197 56.76C364.53 58.2533 363.597 59.5733 362.397 60.72C361.224 61.84 359.824 62.7067 358.197 63.32C356.57 63.9333 354.797 64.24 352.877 64.24ZM352.877 61.68C354.957 61.68 356.784 61.2667 358.357 60.44C359.93 59.5867 361.157 58.4133 362.037 56.92C362.944 55.4 363.397 53.6933 363.397 51.8C363.397 49.9067 362.944 48.2133 362.037 46.72C361.157 45.2267 359.93 44.0667 358.357 43.24C356.784 42.3867 354.957 41.96 352.877 41.96C350.824 41.96 349.01 42.3867 347.437 43.24C345.864 44.0667 344.624 45.2267 343.717 46.72C342.837 48.2133 342.397 49.9067 342.397 51.8C342.397 53.6933 342.837 55.4 343.717 56.92C344.624 58.4133 345.864 59.5867 347.437 60.44C349.01 61.2667 350.824 61.68 352.877 61.68ZM346.917 44.68H350.357V58.8H346.917V44.68ZM354.117 53.64H349.477V51H353.837C354.477 51 354.97 50.84 355.317 50.52C355.69 50.2 355.877 49.76 355.877 49.2C355.877 48.6133 355.69 48.16 355.317 47.84C354.97 47.52 354.477 47.36 353.837 47.36H349.477V44.68H354.117C355.664 44.68 356.917 45.0933 357.877 45.92C358.864 46.7467 359.357 47.84 359.357 49.2C359.357 50.5333 358.864 51.6133 357.877 52.44C356.917 53.24 355.664 53.64 354.117 53.64ZM351.597 52.2H355.197L359.717 58.8H355.637L351.597 52.2Z" fill="#0A0A0A"/>
<rect x="12" y="12" width="15" height="15" fill="#0A0A0A"/>
<rect x="483" y="12" width="15" height="15" fill="#0A0A0A"/>
<rect x="12" y="80" width="15" height="15" fill="#0A0A0A"/>
<rect x="483" y="80" width="15" height="15" fill="#0A0A0A"/>
</svg>
